<svg width="120" height="82" viewBox="0 0 120 82" fill="none" xmlns="http://www.w3.org/2000/svg">
<path d="M59.3246 41.0704C59.3246 48.0371 58.5729 54.0871 57.0696 59.2204C55.5663 64.3538 53.4946 68.6071 50.8546 71.9804C48.2146 75.3171 45.0796 77.8104 41.4496 79.4604C37.8563 81.0738 33.9696 81.8804 29.7896 81.8804C25.6096 81.8804 21.7229 81.0738 18.1296 79.4604C14.5363 77.8104 11.4379 75.3171 8.83461 71.9804C6.23128 68.6071 4.17794 64.3538 2.67461 59.2204C1.20794 54.0871 0.474609 48.0371 0.474609 41.0704C0.474609 34.1038 1.20794 28.0721 2.67461 22.9754C4.17794 17.8421 6.23128 13.6071 8.83461 10.2704C11.4379 6.8971 14.5363 4.40377 18.1296 2.79043C21.7229 1.14043 25.6096 0.31543 29.7896 0.31543C33.9696 0.31543 37.8563 1.14043 41.4496 2.79043C45.0796 4.40377 48.2146 6.8971 50.8546 10.2704C53.4946 13.6071 55.5663 17.8421 57.0696 22.9754C58.5729 28.0721 59.3246 34.1038 59.3246 41.0704ZM43.6496 41.0704C43.6496 35.4238 43.2463 30.7671 42.4396 27.1004C41.6696 23.4338 40.6429 20.5371 39.3596 18.4104C38.0763 16.2838 36.5913 14.7988 34.9046 13.9554C33.2546 13.1121 31.5496 12.6904 29.7896 12.6904C28.0296 12.6904 26.3246 13.1121 24.6746 13.9554C23.0613 14.7988 21.6129 16.2838 20.3296 18.4104C19.0829 20.5371 18.0746 23.4338 17.3046 27.1004C16.5346 30.7671 16.1496 35.4238 16.1496 41.0704C16.1496 46.7538 16.5346 51.4288 17.3046 55.0954C18.0746 58.7621 19.0829 61.6588 20.3296 63.7854C21.6129 65.9121 23.0613 67.3971 24.6746 68.2404C26.3246 69.0838 28.0296 69.5054 29.7896 69.5054C31.5496 69.5054 33.2546 69.0838 34.9046 68.2404C36.5913 67.3971 38.0763 65.9121 39.3596 63.7854C40.6429 61.6588 41.6696 58.7621 42.4396 55.0954C43.2463 51.4288 43.6496 46.7538 43.6496 41.0704Z" fill="#F5F5F5"/>
<path d="M119.118 69.8354V81.0004H74.3482V69.8354H90.1882V26.1654C90.1882 25.2121 90.2065 24.2404 90.2432 23.2504C90.2799 22.2604 90.3349 21.2521 90.4082 20.2254L79.9582 28.9154C79.2249 29.4654 78.5099 29.8138 77.8132 29.9604C77.1165 30.1071 76.4565 30.1254 75.8332 30.0154C75.2099 29.8688 74.6599 29.6488 74.1832 29.3554C73.7065 29.0254 73.3399 28.6954 73.0832 28.3654L68.2982 21.9304L92.8282 1.14044H105.313V69.8354H119.118Z" fill="#F5F5F5"/>
</svg>
