<svg width="122" height="82" viewBox="0 0 122 82" fill="none" xmlns="http://www.w3.org/2000/svg">
<path d="M59.8246 41.0704C59.8246 48.0371 59.0729 54.0871 57.5696 59.2204C56.0663 64.3538 53.9946 68.6071 51.3546 71.9804C48.7146 75.3171 45.5796 77.8104 41.9496 79.4604C38.3563 81.0738 34.4696 81.8804 30.2896 81.8804C26.1096 81.8804 22.2229 81.0738 18.6296 79.4604C15.0363 77.8104 11.9379 75.3171 9.33461 71.9804C6.73128 68.6071 4.67794 64.3538 3.17461 59.2204C1.70794 54.0871 0.974609 48.0371 0.974609 41.0704C0.974609 34.1038 1.70794 28.0721 3.17461 22.9754C4.67794 17.8421 6.73128 13.6071 9.33461 10.2704C11.9379 6.8971 15.0363 4.40377 18.6296 2.79043C22.2229 1.14043 26.1096 0.31543 30.2896 0.31543C34.4696 0.31543 38.3563 1.14043 41.9496 2.79043C45.5796 4.40377 48.7146 6.8971 51.3546 10.2704C53.9946 13.6071 56.0663 17.8421 57.5696 22.9754C59.0729 28.0721 59.8246 34.1038 59.8246 41.0704ZM44.1496 41.0704C44.1496 35.4238 43.7463 30.7671 42.9396 27.1004C42.1696 23.4338 41.1429 20.5371 39.8596 18.4104C38.5763 16.2838 37.0913 14.7988 35.4046 13.9554C33.7546 13.1121 32.0496 12.6904 30.2896 12.6904C28.5296 12.6904 26.8246 13.1121 25.1746 13.9554C23.5613 14.7988 22.1129 16.2838 20.8296 18.4104C19.5829 20.5371 18.5746 23.4338 17.8046 27.1004C17.0346 30.7671 16.6496 35.4238 16.6496 41.0704C16.6496 46.7538 17.0346 51.4288 17.8046 55.0954C18.5746 58.7621 19.5829 61.6588 20.8296 63.7854C22.1129 65.9121 23.5613 67.3971 25.1746 68.2404C26.8246 69.0838 28.5296 69.5054 30.2896 69.5054C32.0496 69.5054 33.7546 69.0838 35.4046 68.2404C37.0913 67.3971 38.5763 65.9121 39.8596 63.7854C41.1429 61.6588 42.1696 58.7621 42.9396 55.0954C43.7463 51.4288 44.1496 46.7538 44.1496 41.0704Z" fill="#F5F5F5"/>
<path d="M116.153 67.0854C117.803 67.0854 119.087 67.5438 120.003 68.4604C120.957 69.3771 121.433 70.5871 121.433 72.0904V81.0004H66.1032V76.0504C66.1032 75.0971 66.3049 74.0704 66.7082 72.9704C67.1115 71.8338 67.7899 70.8071 68.7432 69.8904L92.3932 46.1854C94.4099 44.1688 96.1882 42.2438 97.7282 40.4104C99.2682 38.5404 100.552 36.7254 101.578 34.9654C102.605 33.1688 103.375 31.3538 103.888 29.5204C104.402 27.6871 104.658 25.7621 104.658 23.7454C104.658 20.1888 103.742 17.4938 101.908 15.6604C100.075 13.7904 97.4899 12.8554 94.1532 12.8554C92.6865 12.8554 91.3299 13.0754 90.0832 13.5154C88.8732 13.9188 87.7732 14.4871 86.7832 15.2204C85.8299 15.9538 85.0049 16.8154 84.3082 17.8054C83.6115 18.7954 83.0982 19.8771 82.7682 21.0504C82.1082 22.8838 81.2099 24.1121 80.0732 24.7354C78.9732 25.3221 77.3965 25.4504 75.3432 25.1204L67.3132 23.6904C67.8999 19.8038 68.9999 16.3938 70.6132 13.4604C72.2265 10.5271 74.2432 8.08877 76.6632 6.14543C79.0832 4.2021 81.8515 2.75377 84.9682 1.80043C88.0849 0.810431 91.4399 0.31543 95.0332 0.31543C98.8099 0.31543 102.238 0.883763 105.318 2.02043C108.435 3.12043 111.093 4.67877 113.293 6.69543C115.493 8.67543 117.198 11.0771 118.408 13.9004C119.618 16.7238 120.223 19.8404 120.223 23.2504C120.223 26.1838 119.802 28.8971 118.958 31.3904C118.115 33.8838 116.96 36.2671 115.493 38.5404C114.063 40.7771 112.395 42.9588 110.488 45.0854C108.582 47.2121 106.565 49.3571 104.438 51.5204L87.4982 68.8454C89.3682 68.2954 91.2199 67.8738 93.0532 67.5804C94.8865 67.2504 96.6099 67.0854 98.2232 67.0854H116.153Z" fill="#F5F5F5"/>
</svg>
