<svg xmlns="http://www.w3.org/2000/svg" width="16" height="16" viewBox="0 0 16 16"><g><g><g><path fill="#92949d" d="M0 2a2 2 0 0 1 2-2h12a2 2 0 0 1 2 2v12a2 2 0 0 1-2 2H2a2 2 0 0 1-2-2z"/></g><g><path fill="#fff" d="M11.111 3.914c.489 0 .889.412.889.915v6.4c0 .502-.4.914-.889.914H4.89c-.489 0-.889-.412-.889-.914v-6.4c0-.503.4-.915.889-.915h1.858C6.933 3.384 7.422 3 8 3c.578 0 1.067.384 1.253.914zm-3.555.457c0 .252.2.457.444.457a.452.452 0 0 0 .444-.457c0-.251-.2-.457-.444-.457a.452.452 0 0 0-.444.457zM5.333 8.487l1.778 1.828 3.556-3.657-.627-.65-2.929 3.014-1.15-1.18z"/></g></g></g></svg>