<svg xmlns="http://www.w3.org/2000/svg" width="22" height="24" viewBox="0 0 22 24"><g><g><path fill="#D0D0D0" d="M22 5.143v17.143c0 .464-.168.866-.502 1.205-.335.34-.732.509-1.19.509H1.692c-.458 0-.855-.17-1.19-.509A1.659 1.659 0 0 1 0 22.286V5.143c0-.464.167-.866.502-1.205.335-.34.732-.51 1.19-.51h1.693V2.144c0-.59.207-1.094.621-1.513C4.42.21 4.918 0 5.5 0h.846c.582 0 1.08.21 1.494.63.415.42.622.924.622 1.513v1.286h5.077V2.143c0-.59.207-1.094.621-1.513.415-.42.912-.63 1.494-.63h.846c.582 0 1.08.21 1.494.63.415.42.622.924.622 1.513v1.286h1.692c.458 0 .855.17 1.19.509.335.339.502.74.502 1.205zm-6.769-3v3.858a.409.409 0 0 0 .423.429h.846a.41.41 0 0 0 .423-.43V2.145a.41.41 0 0 0-.423-.429h-.846a.41.41 0 0 0-.423.429zm-10.153 0v3.858a.409.409 0 0 0 .423.429h.846A.41.41 0 0 0 6.77 6V2.145a.409.409 0 0 0-.423-.429H5.5a.41.41 0 0 0-.423.429zm15.23 20.143V8.572H1.692v13.714z"/></g></g></svg>