<svg xmlns="http://www.w3.org/2000/svg" width="16" height="16" viewBox="0 0 16 16"><g><g><g><path fill="#92949d" d="M0 2a2 2 0 0 1 2-2h12a2 2 0 0 1 2 2v12a2 2 0 0 1-2 2H2a2 2 0 0 1-2-2z"/></g><g><g><path fill="#fff" d="M7.913 7.364c.59 0 1.092-.213 1.509-.64.416-.426.625-.94.625-1.542 0-.602-.209-1.117-.625-1.543A2.033 2.033 0 0 0 7.913 3c-.589 0-1.091.213-1.508.64-.417.425-.625.94-.625 1.542 0 .602.208 1.116.625 1.542.417.427.92.64 1.508.64z"/></g><g><path fill="#fff" d="M11.89 9.86a6.255 6.255 0 0 0-.23-1.283 3.092 3.092 0 0 0-.245-.575 2.065 2.065 0 0 0-.352-.478 1.476 1.476 0 0 0-.486-.316 1.651 1.651 0 0 0-.633-.118c-.034 0-.114.042-.239.127l-.423.283a2.637 2.637 0 0 1-.614.283 2.37 2.37 0 0 1-.758.127 2.37 2.37 0 0 1-.759-.127 2.636 2.636 0 0 1-.613-.283 53.672 53.672 0 0 1-.424-.283c-.125-.085-.204-.127-.238-.127-.231 0-.442.04-.634.118a1.476 1.476 0 0 0-.485.316c-.133.131-.25.29-.353.478a3.099 3.099 0 0 0-.244.575 6.214 6.214 0 0 0-.23 1.283 9.18 9.18 0 0 0-.02.611c0 .472.138.845.415 1.118.276.273.644.41 1.102.41h4.966c.458 0 .826-.137 1.102-.41.277-.273.415-.646.415-1.118 0-.209-.007-.412-.02-.61z"/></g></g></g></g></svg>