<svg xmlns="http://www.w3.org/2000/svg" width="30" height="22" viewBox="0 0 30 22"><g><g><g><path fill="#92949d" d="M8.094 10.742C9.191 10.247 10.24 10 11.24 10h13.284V7.5c0-.958-.352-1.781-1.054-2.469A3.479 3.479 0 0 0 20.946 4h-8.685v-.5c0-.958-.351-1.781-1.053-2.469A3.48 3.48 0 0 0 8.685 0H3.576c-.979 0-1.82.344-2.522 1.031C.35 1.72 0 2.541 0 3.5v15c0 .041.003.106.008.195.005.088.008.154.008.195l.08-.093 5.38-6.188c.65-.75 1.522-1.372 2.618-1.867z"/></g><g><path fill="#92949d" d="M29.58 12.203a2.202 2.202 0 0 0-.966-.203h-17.37c-.703 0-1.466.185-2.291.555-.825.37-1.466.82-1.924 1.352l-5.364 6.187c-.33.364-.495.708-.495 1.031 0 .313.141.537.423.672.282.135.604.203.966.203h17.37c.703 0 1.466-.185 2.291-.555.825-.37 1.466-.82 1.924-1.351l5.364-6.187c.33-.365.495-.709.495-1.032a.692.692 0 0 0-.423-.672z"/></g></g></g></svg>