<svg xmlns="http://www.w3.org/2000/svg" width="16" height="14" viewBox="0 0 16 14"><g><g><g><path fill="#92949d" d="M4.317 6.836c.585-.315 1.144-.472 1.678-.472h7.085V4.773c0-.61-.187-1.134-.562-1.571-.375-.438-.823-.657-1.346-.657H6.54v-.318c0-.61-.187-1.133-.562-1.57C5.603.218 5.155 0 4.632 0H1.907C1.385 0 .937.219.562.656.187 1.094 0 1.617 0 2.227v9.546c0 .026.001.068.004.124.003.056.005.098.005.124l.042-.059 2.87-3.938c.346-.477.812-.873 1.396-1.188z"/></g><g><path fill="#92949d" d="M15.773 7.77a1.017 1.017 0 0 0-.515-.13H5.993c-.375 0-.782.118-1.222.353-.44.236-.782.522-1.026.86L.884 12.791c-.176.232-.264.45-.264.656 0 .199.075.342.226.428.15.086.322.129.515.129h9.265c.374 0 .782-.118 1.222-.353.44-.235.782-.522 1.026-.86l2.861-3.938c.176-.232.264-.45.264-.656 0-.199-.075-.341-.226-.428z"/></g></g></g></svg>