<svg xmlns="http://www.w3.org/2000/svg" width="16" height="16" viewBox="0 0 16 16"><g><g><g><path fill="#92949d" d="M0 2a2 2 0 0 1 2-2h12a2 2 0 0 1 2 2v12a2 2 0 0 1-2 2H2a2 2 0 0 1-2-2z"/></g><g><path fill="#fff" d="M8.636 8.729c.135.048.26.1.374.155.115.056.213.122.296.198a.77.77 0 0 1 .198.265.758.758 0 0 1 .073.343c0 .322-.096.583-.286.784-.187.197-.464.32-.831.369zm-.67-1.45a3.567 3.567 0 0 1-.363-.166 1.56 1.56 0 0 1-.291-.208 1.015 1.015 0 0 1-.192-.265.843.843 0 0 1-.068-.348c0-.114.019-.223.057-.327a.797.797 0 0 1 .192-.28c.087-.083.198-.153.333-.208.135-.059.3-.1.493-.125zm.95-1.9c.136.03.259.07.37.119.114.048.216.097.306.145l.244.12a.49.49 0 0 0 .187.046c.07 0 .128-.017.177-.052a.57.57 0 0 0 .14-.155l.312-.473a3.32 3.32 0 0 0-.691-.504 2.794 2.794 0 0 0-.95-.317l.082-1.018h-.472a.32.32 0 0 0-.244.099.362.362 0 0 0-.104.223l-.057.655c-.381.017-.719.09-1.013.218-.295.128-.544.29-.748.488-.201.197-.354.423-.457.675a1.98 1.98 0 0 0-.156.77c0 .352.059.647.176.882.118.236.272.431.463.587.194.153.41.275.649.369.242.093.486.175.732.244l-.192 2.322a1.795 1.795 0 0 1-.504-.161 5.136 5.136 0 0 1-.379-.213 8.782 8.782 0 0 0-.296-.187.458.458 0 0 0-.244-.083.363.363 0 0 0-.187.052.389.389 0 0 0-.135.125l-.395.586c.25.246.552.452.909.619.357.166.738.277 1.143.332l-.094 1.112h.473A.307.307 0 0 0 8.2 12.9a.324.324 0 0 0 .104-.218l.062-.764A2.962 2.962 0 0 0 9.4 11.68c.301-.138.556-.315.763-.53a2.23 2.23 0 0 0 .473-.748 2.55 2.55 0 0 0 .161-.909c0-.325-.06-.595-.182-.81-.12-.218-.28-.4-.477-.546a2.557 2.557 0 0 0-.66-.353 11.747 11.747 0 0 0-.743-.254z"/></g></g></g></svg>