<svg xmlns="http://www.w3.org/2000/svg" width="28" height="26" viewBox="0 0 28 26"><g><g><path fill="#fb333e" d="M9.19 25.748c-1.56 0-3.013-.84-3.791-2.193L.58 15.188a4.39 4.39 0 0 1 0-4.366L5.4 2.453A4.387 4.387 0 0 1 9.19.26h9.618c1.56 0 3.014.84 3.792 2.193l4.818 8.368a4.388 4.388 0 0 1 0 4.366l-2.31 4.012a1.094 1.094 0 1 1-1.896-1.091l2.31-4.012a2.195 2.195 0 0 0 0-2.183l-4.818-8.369a2.193 2.193 0 0 0-1.896-1.096H9.191c-.78 0-1.507.42-1.896 1.096l-4.818 8.369a2.195 2.195 0 0 0 0 2.183l4.818 8.368A2.193 2.193 0 0 0 9.19 23.56h9.618c.78 0 1.507-.42 1.896-1.096a1.094 1.094 0 1 1 1.896 1.092 4.387 4.387 0 0 1-3.792 2.192zm4.81-6.18a6.57 6.57 0 0 1-6.563-6.564A6.571 6.571 0 0 1 14 6.441a6.571 6.571 0 0 1 6.564 6.563A6.57 6.57 0 0 1 14 19.567zm0-10.94a4.38 4.38 0 0 0-4.376 4.376A4.38 4.38 0 0 0 14 17.38a4.38 4.38 0 0 0 4.376-4.376A4.38 4.38 0 0 0 14 8.628z"/></g></g></svg>