<svg xmlns="http://www.w3.org/2000/svg" width="24" height="24" viewBox="0 0 24 24"><g><g><path fill="#fff" d="M22.688 16.5c.375 0 .687.125.937.375s.375.563.375.938v4.625C24 23.479 23.562 24 22.687 24c-6.208 0-11.541-2.23-16-6.688C2.23 12.854 0 7.521 0 1.313 0 .438.52 0 1.563 0h4.625c.375 0 .687.125.937.375s.375.563.375.938c0 1.625.25 3.187.75 4.687.167.542.063 1-.313 1.375l-2.562 2.25c1.917 4 4.98 7.02 9.188 9.063l2.062-2.625c.25-.25.563-.375.938-.375.208 0 .354.02.437.062 1.5.5 3.063.75 4.688.75z"/></g></g></svg>