<svg xmlns="http://www.w3.org/2000/svg" width="17" height="24" viewBox="0 0 17 24"><g><g><path fill="#fff" d="M5.389 8.394c0-.826.28-1.52.842-2.084.598-.601 1.31-.902 2.133-.902s1.515.3 2.076.902c.6.563.899 1.258.899 2.084 0 .827-.3 1.54-.899 2.141-.56.564-1.253.845-2.076.845a3.007 3.007 0 0 1-2.133-.845 3.03 3.03 0 0 1-.842-2.14zM0 8.394c0 1.165.3 2.517.898 4.057a30.833 30.833 0 0 0 1.965 4.169 57.24 57.24 0 0 0 2.582 3.774c.973 1.277 1.646 2.141 2.02 2.592.375.413.674.751.899 1.014l.898-.958c.561-.676 1.235-1.577 2.02-2.704a79.85 79.85 0 0 0 2.47-3.718 23.302 23.302 0 0 0 2.077-4.226c.599-1.502.898-2.835.898-4 0-2.328-.823-4.3-2.47-5.915C12.649.826 10.684 0 8.364 0S4.06.826 2.414 2.479C.804 4.094 0 6.066 0 8.394z"/></g></g></svg>