<svg xmlns="http://www.w3.org/2000/svg" width="140" height="120" viewBox="0 0 140 120"><g><g><g><path fill="#75b472" d="M116.848 65.879a2.22 2.22 0 0 0-1.011-.256c-.731 0-1.375.283-1.936.852l-5.388 5.454c-.504.512-.758 1.136-.758 1.875V95.45c0 3.751-1.316 6.96-3.955 9.631-2.638 2.671-5.81 4.005-9.513 4.005H24.245c-3.704 0-6.876-1.334-9.514-4.005-2.637-2.671-3.956-5.88-3.956-9.631V24.544c0-3.75 1.319-6.96 3.956-9.631 2.638-2.67 5.81-4.006 9.514-4.006h70.043c1.234 0 2.497.17 3.788.512.337.113.589.17.756.17.73 0 1.376-.283 1.937-.851l4.125-4.176c.673-.681.926-1.505.757-2.47-.169-.91-.674-1.564-1.516-1.961C101.105.712 97.821 0 94.285 0h-70.04c-6.678 0-12.39 2.4-17.132 7.202C2.371 12.004 0 17.784 0 24.546v70.908c0 6.761 2.371 12.541 7.113 17.343C11.856 117.599 17.567 120 24.245 120h70.042c6.678 0 12.389-2.401 17.131-7.203 4.743-4.802 7.116-10.582 7.116-17.343V68.351c0-1.193-.564-2.016-1.686-2.472z"/></g><g><path fill="#75b472" d="M137.975 16.96l-9.261-9.375c-1.347-1.363-2.947-2.045-4.8-2.045-1.85 0-3.452.682-4.798 2.045L64.647 62.727 42.508 40.312c-1.347-1.364-2.946-2.045-4.798-2.045-1.852 0-3.451.681-4.799 2.045l-9.26 9.375c-1.347 1.364-2.021 2.983-2.021 4.859 0 1.874.674 3.494 2.021 4.858L59.85 96.05c1.347 1.366 2.947 2.047 4.799 2.047 1.851 0 3.45-.681 4.798-2.046l68.527-69.374c1.346-1.363 2.021-2.984 2.021-4.858 0-1.875-.674-3.495-2.02-4.858z"/></g></g></g></svg>